HIERARCHY
ROOT hip
{
	OFFSET 0.000000 0.000000 0.000000 
	CHANNELS 6 Xposition Yposition Zposition Xrotation Zrotation Yrotation
	JOINT abdomen
	{
		OFFSET 0.000000 3.402643 0.000000 
		CHANNELS 3 Xrotation Zrotation Yrotation
		JOINT chest
		{
			OFFSET 0.000000 8.438565 -0.680529 
			CHANNELS 3 Xrotation Zrotation Yrotation
			JOINT neck
			{
				OFFSET 0.000000 10.207942 -0.272212 
				CHANNELS 3 Xrotation Zrotation Yrotation
				JOINT head
				{
					OFFSET 0.000000 3.130431 0.000000 
					CHANNELS 3 Xrotation Zrotation Yrotation
					End Site
					{
						OFFSET 0.000000 3.130435 0.000000 
					}
				}
			}
			JOINT lCollar
			{
				OFFSET 3.470700 6.669187 -0.816635 
				CHANNELS 3 Yrotation Zrotation Xrotation
				JOINT lShldr
				{
					OFFSET 3.198488 0.000000 0.000000 
					CHANNELS 3 Zrotation Yrotation Xrotation
					JOINT lForeArm
					{
						OFFSET 10.139888 0.000000 0.000000 
						CHANNELS 3 Yrotation Zrotation Xrotation
						JOINT lHand
						{
							OFFSET 8.370511 0.000000 0.000000 
							CHANNELS 3 Zrotation Yrotation Xrotation
							End Site
							{
								OFFSET 4.083176 0.000000 0.000000 
							}
						}
					}
				}
			}
			JOINT rCollar
			{
				OFFSET -3.470700 6.669187 -0.816635 
				CHANNELS 3 Yrotation Zrotation Xrotation
				JOINT rShldr
				{
					OFFSET -3.198488 0.000000 0.000000 
					CHANNELS 3 Zrotation Yrotation Xrotation
					JOINT rForeArm
					{
						OFFSET -10.139888 0.000000 0.000000 
						CHANNELS 3 Yrotation Zrotation Xrotation
						JOINT rHand
						{
							OFFSET -8.370511 0.000000 0.000000 
							CHANNELS 3 Zrotation Yrotation Xrotation
							End Site
							{
								OFFSET -4.083176 0.000000 0.000000 
							}
						}
					}
				}
			}
		}
	}
	JOINT lThigh
	{
		OFFSET 5.308129 -1.633274 1.361059 
		CHANNELS 3 Xrotation Zrotation Yrotation
		JOINT lShin
		{
			OFFSET -2.041588 -20.007561 0.000000 
			CHANNELS 3 Xrotation Zrotation Yrotation
			JOINT lFoot
			{
				OFFSET 0.000000 -19.190928 -1.224953 
				CHANNELS 3 Xrotation Yrotation Zrotation
				End Site
				{
					OFFSET 0.000000 -2.449906 4.627600 
				}
			}
		}
	}
	JOINT rThigh
	{
		OFFSET -5.308129 -1.633274 1.361059 
		CHANNELS 3 Xrotation Zrotation Yrotation
		JOINT rShin
		{
			OFFSET 2.041588 -20.007561 0.000000 
			CHANNELS 3 Xrotation Zrotation Yrotation
			JOINT rFoot
			{
				OFFSET 0.000000 -19.190928 -1.224953 
				CHANNELS 3 Xrotation Yrotation Zrotation
				End Site
				{
					OFFSET 0.000000 -2.449906 4.627600 
				}
			}
		}
	}
}
MOTION
Frames: 20
Frame Time: 0.016667
2.685142 44.250648 0.155931 -1.438670 -3.778110 -1.467890 -20.645300 1.870160 -0.130521 14.447600 2.427560 0.062761 14.441800 16.023300 -8.281810 13.999700 11.324000 -3.770840 2.000000 -2.000000 0.000000 -89.326797 7.223680 157.766998 35.029701 -0.326800 0.078534 0.048820 -0.036407 -150.037003 -2.000000 2.000000 0.000000 86.399902 -2.302130 162.270004 -27.412399 0.336213 0.062946 -0.055633 0.019858 -144.031006 -7.688712 0.702386 4.827432 28.770540 3.014819 2.104785 -15.732166 -1.138094 -0.345776 -7.193453 1.275729 0.851423 26.021902 -3.237502 -1.855654 -12.680888 -7.449716 -2.302751 
2.581105 44.262867 0.103204 -1.370400 -3.924660 -1.175940 -20.588100 1.958790 -0.255710 14.466900 2.485910 0.008555 14.437000 16.052200 -8.448930 14.137900 11.290200 -3.797870 2.000000 -2.000000 0.000000 -89.599998 7.027900 157.552994 34.941799 -0.326920 0.078362 0.048795 -0.036300 -149.998001 -2.000000 2.000000 0.000000 86.262901 -2.086480 161.919006 -26.973000 0.336693 0.062013 -0.055530 0.019016 -143.727997 -7.898450 0.904667 4.302633 28.779709 3.017487 2.095520 -15.623513 -1.003145 -0.304048 -7.203954 1.459323 0.469623 25.815092 -3.239329 -1.858312 -12.642092 -7.252681 -2.264018 
2.485461 44.270451 0.041370 -1.243090 -3.885810 -1.175700 -20.569000 1.988730 -0.287098 14.544800 2.544540 -0.003946 14.113200 16.080299 -8.551400 14.058300 11.293000 -3.813160 2.000000 -2.000000 0.000000 -89.844101 7.008360 157.552994 35.078499 -0.326733 0.078629 0.048838 -0.036487 -150.065994 -2.000000 2.000000 0.000000 86.155296 -1.939620 161.753006 -26.660400 0.337029 0.061348 -0.055485 0.018636 -143.591995 -8.098808 0.908439 4.002301 28.772926 2.989696 2.098601 -15.574961 -0.821861 -0.248944 -7.400685 1.459748 0.247991 25.698275 -3.225232 -1.846799 -12.631593 -7.058285 -2.239869 
2.389827 44.278046 -0.020466 -1.125600 -3.856680 -1.164690 -20.549999 2.027830 -0.321887 14.622800 2.593470 -0.015281 13.790100 16.107201 -8.663750 13.968700 11.296300 -3.830380 2.000000 -2.000000 0.000000 -90.088303 6.988860 157.563004 35.224998 -0.326532 0.078915 0.048876 -0.036647 -150.125000 -2.000000 2.000000 0.000000 86.057503 -1.783000 161.587006 -26.347900 0.337362 0.060680 -0.055444 0.018283 -143.464996 -8.280255 0.905891 3.701057 28.861910 2.995181 2.127963 -15.640901 -0.659940 -0.205375 -7.529455 1.456338 0.051443 25.610971 -3.214547 -1.845540 -12.679244 -6.886885 -2.199056 
2.284229 44.278427 -0.058402 -1.145120 -3.817600 -1.193450 -20.589600 2.063920 -0.336897 14.514900 2.680360 -0.019607 13.729500 16.102100 -8.698990 13.948500 11.287300 -3.835850 2.000000 -2.000000 0.000000 -90.215599 7.321550 157.865005 35.371498 -0.326330 0.079200 0.049033 -0.037312 -150.369003 -2.000000 2.000000 0.000000 86.018402 -1.948860 161.518997 -26.299101 0.337413 0.060576 -0.055395 0.017848 -143.307999 -8.294378 0.934133 3.467177 28.831188 3.000374 2.110186 -15.608307 -0.481270 -0.129911 -7.507132 1.515932 0.043561 25.516993 -3.180052 -1.848905 -12.661100 -6.833929 -2.192221 
2.178643 44.278812 -0.096343 -1.174430 -3.778510 -1.211830 -20.639099 2.108990 -0.355728 14.406900 2.757500 -0.032980 13.658100 16.088301 -8.737140 13.938500 11.287700 -3.847530 2.000000 -2.000000 0.000000 -90.352699 7.644490 158.167007 35.527699 -0.326113 0.079504 0.049194 -0.037976 -150.613007 -2.000000 2.000000 0.000000 85.979301 -2.114700 161.440002 -26.260099 0.337455 0.060492 -0.055344 0.017386 -143.141998 -8.319462 0.965244 3.214613 28.898848 3.011378 2.111985 -15.671017 -0.308493 -0.080057 -7.529937 1.592690 0.021664 25.547714 -3.173021 -1.857272 -12.702703 -6.777221 -2.176634 
2.069855 44.277786 -0.134457 -1.213760 -3.905380 -1.323760 -20.581600 2.196600 -0.344580 14.475400 2.757850 -0.010159 13.371400 15.981300 -8.797430 13.787800 11.254500 -3.874840 2.000000 -2.000000 0.000000 -90.401802 7.703690 158.440002 35.312901 -0.326410 0.079086 0.049174 -0.037897 -150.584000 -2.000000 2.000000 0.000000 85.999001 -2.115050 161.595993 -26.426100 0.337279 0.060847 -0.055435 0.018201 -143.434998 -8.362500 1.171293 3.029753 28.995426 3.027929 2.114751 -15.751746 -0.090402 -0.005281 -7.540468 1.909690 0.273383 25.509392 -3.160699 -1.845372 -12.612512 -6.958363 -2.187162 
1.961066 44.276627 -0.172572 -1.253100 -4.032240 -1.425760 -20.523899 2.271690 -0.339004 14.543800 2.758200 0.002896 13.084300 15.874200 -8.849520 13.637200 11.221100 -3.890300 2.000000 -2.000000 0.000000 -90.450897 7.772660 158.712997 35.098000 -0.326706 0.078667 0.049148 -0.037790 -150.544998 -2.000000 2.000000 0.000000 86.018600 -2.115380 161.742996 -26.592100 0.337102 0.061202 -0.055533 0.019043 -143.738007 -8.319995 1.385815 2.849666 29.033974 3.035460 2.116083 -15.868670 0.114405 0.062633 -7.549639 2.220162 0.534815 25.510311 -3.156152 -1.854089 -12.560095 -7.128154 -2.194555 
1.882351 44.275856 -0.196117 -1.321430 -3.905210 -1.433630 -20.533899 2.271560 -0.422781 14.494600 2.816220 -0.044690 13.087400 15.746600 -8.758520 13.606300 11.193300 -3.861720 2.000000 -2.000000 0.000000 -90.607498 8.076190 159.074005 35.205399 -0.326558 0.078877 0.049078 -0.037498 -150.436996 -2.000000 2.000000 0.000000 85.969902 -2.164480 161.860001 -26.689699 0.336998 0.061410 -0.055540 0.019098 -143.757996 -8.292773 1.296226 2.770478 29.014404 3.030653 2.105424 -15.779160 0.248463 0.113734 -7.513615 2.113246 0.421509 25.590582 -3.145807 -1.860664 -12.643744 -6.973361 -2.164162 
1.803624 44.274952 -0.219659 -1.399530 -3.778170 -1.431400 -20.543699 2.262290 -0.503145 14.435600 2.874170 -0.092863 13.090500 15.618900 -8.670210 13.565500 11.165800 -3.825230 2.000000 -2.000000 0.000000 -90.754402 8.379730 159.434998 35.312901 -0.326410 0.079086 0.049008 -0.037206 -150.330002 -2.000000 2.000000 0.000000 85.921097 -2.223310 161.966995 -26.787399 0.336893 0.061618 -0.055550 0.019179 -143.787003 -8.303771 1.203989 2.703547 29.004040 3.032285 2.096234 -15.707777 0.390921 0.169253 -7.568792 2.041715 0.319107 25.728844 -3.144230 -1.868407 -12.681746 -6.835888 -2.140054 
1.716012 44.273796 -0.250164 -1.468190 -3.865920 -1.327000 -20.485600 2.288280 -0.572881 14.514000 2.845460 -0.115166 12.912700 15.464500 -8.689080 13.454100 11.111700 -3.837810 2.000000 -2.000000 0.000000 -90.803497 8.370560 159.697998 34.990601 -0.326853 0.078457 0.048926 -0.036860 -150.203003 -2.000000 2.000000 0.000000 85.931198 -2.351090 162.328003 -27.236601 0.336406 0.062573 -0.055643 0.019939 -144.059998 -8.258175 1.378551 2.523575 29.052937 3.034146 2.096058 -15.727344 0.386048 0.177698 -7.521420 2.245317 0.342210 25.750948 -3.126201 -1.873893 -12.720449 -6.934032 -2.160566 
1.628399 44.272644 -0.280670 -1.546630 -3.943880 -1.221970 -20.417601 2.311010 -0.651286 14.592400 2.816730 -0.147313 12.734500 15.310300 -8.697270 13.342700 11.057500 -3.848290 2.000000 -2.000000 0.000000 -90.862297 8.371150 159.962006 34.668301 -0.327292 0.077826 0.048838 -0.036487 -150.065994 -2.000000 2.000000 0.000000 85.950996 -2.478860 162.688995 -27.695601 0.335901 0.063545 -0.055737 0.020672 -144.324005 -8.283669 1.532148 2.338017 29.169764 3.052494 2.118007 -15.737210 0.386292 0.166850 -7.432695 2.430057 0.359541 25.751478 -3.121492 -1.872865 -12.818820 -7.017799 -2.199737 
1.558637 44.267620 -0.312499 -1.585680 -3.885230 -1.386920 -20.379801 2.393970 -0.680326 14.630900 2.933490 -0.157460 12.676900 15.197700 -8.606350 13.292600 11.049500 -3.810370 2.000000 -2.000000 0.000000 -91.077400 8.567090 160.244995 34.560902 -0.327438 0.077615 0.048745 -0.036087 -149.919998 -2.000000 2.000000 0.000000 85.785301 -2.528830 163.186996 -27.978800 0.335585 0.064143 -0.055870 0.021675 -144.684998 -8.300611 1.530732 2.378283 29.256529 3.064900 2.110224 -15.762225 0.533136 0.214154 -7.535306 2.430517 0.350190 25.881552 -3.104901 -1.877966 -12.765664 -6.832611 -2.122945 
1.488886 44.262611 -0.344328 -1.634520 -3.836330 -1.541250 -20.342199 2.489550 -0.703922 14.659600 3.050210 -0.158202 12.609500 15.075600 -8.530250 13.242600 11.041500 -3.772430 2.000000 -2.000000 0.000000 -91.302299 8.763020 160.518005 34.463299 -0.327570 0.077423 0.048660 -0.035714 -149.783005 -2.000000 2.000000 0.000000 85.619598 -2.578820 163.695007 -28.261999 0.335267 0.064739 -0.056006 0.022650 -145.037003 -8.219048 1.529418 2.402846 29.197948 3.057445 2.099485 -15.736712 0.687422 0.265158 -7.598527 2.423907 0.334365 26.019516 -3.112698 -1.907171 -12.748349 -6.632324 -2.062091 
1.421921 44.259136 -0.337471 -1.742370 -3.923970 -1.756010 -20.363199 2.583060 -0.677038 14.630100 3.069480 -0.132475 12.715300 14.989400 -8.376320 13.212400 11.032800 -3.732610 2.000000 -2.000000 0.000000 -91.342201 9.292130 161.298004 34.726898 -0.327213 0.077941 0.048894 -0.036727 -150.154007 -2.000000 2.000000 0.000000 85.590500 -2.745300 163.899994 -28.427999 0.335079 0.065087 -0.056057 0.023001 -145.164001 -8.141276 1.698767 2.543794 29.332830 3.084063 2.104331 -15.801251 0.773452 0.290679 -7.442021 2.589586 0.397218 26.010866 -3.098410 -1.894455 -12.765291 -6.561634 -2.027184 
1.354967 44.255531 -0.330611 -1.860050 -4.021320 -1.959680 -20.393999 2.679820 -0.641495 14.600700 3.088740 -0.106768 12.811100 14.904100 -8.228470 13.182600 11.033800 -3.689390 2.000000 -2.000000 0.000000 -91.382004 9.830980 162.067993 34.980801 -0.326867 0.078438 0.049129 -0.037711 -150.514999 -2.000000 2.000000 0.000000 85.551598 -2.921550 164.104004 -28.594101 0.334890 0.065435 -0.056104 0.023326 -145.281006 -8.012850 1.889779 2.691877 29.410389 3.094198 2.105963 -15.855099 0.860516 0.338719 -7.390660 2.766022 0.460511 26.069885 -3.098078 -1.893662 -12.746072 -6.496069 -1.992143 
1.299596 44.257980 -0.341505 -1.859790 -3.904200 -1.904870 -20.325701 2.674140 -0.740041 14.717600 3.176830 -0.158195 12.720400 14.666200 -8.232320 13.129300 10.929300 -3.686120 2.000000 -2.000000 0.000000 -91.499603 9.910310 162.595001 35.146900 -0.326639 0.078763 0.048995 -0.037152 -150.309998 -2.000000 2.000000 0.000000 85.502701 -2.608900 164.037003 -28.301100 0.335223 0.064821 -0.055972 0.022406 -144.949005 -7.976471 1.834175 2.690322 29.330988 3.103339 2.109201 -15.769308 0.817738 0.325540 -7.354301 2.684650 0.376052 26.070629 -3.091360 -1.892126 -12.791468 -6.448943 -1.981124 
1.244236 44.260418 -0.352401 -1.869320 -3.787050 -1.849420 -20.257200 2.668480 -0.838520 14.844200 3.264990 -0.208707 12.630800 14.437700 -8.233430 13.076500 10.834400 -3.681160 2.000000 -2.000000 0.000000 -91.607498 9.989630 163.121994 35.303101 -0.326424 0.079067 0.048857 -0.036567 -150.095993 -2.000000 2.000000 0.000000 85.453796 -2.306010 163.968994 -28.008101 0.335553 0.064204 -0.055841 0.021458 -144.606995 -7.932111 1.769061 2.688067 29.261702 3.101090 2.090038 -15.703358 0.768042 0.308958 -7.415474 2.617303 0.272964 26.158476 -3.104230 -1.913328 -12.819434 -6.389190 -1.974181 
1.208501 44.261452 -0.349079 -1.908150 -3.640560 -1.832160 -20.285999 2.634820 -0.900485 14.814900 3.264820 -0.239673 12.701400 14.340400 -8.173190 13.085500 10.805200 -3.666150 2.000000 -2.000000 0.000000 -91.598396 10.323700 164.009995 35.381199 -0.326316 0.079219 0.049161 -0.037844 -150.563995 -2.000000 2.000000 0.000000 85.473396 -2.491910 164.125000 -28.340200 0.335178 0.064903 -0.055930 0.022108 -144.841995 -7.849774 1.642893 2.703835 29.184275 3.093706 2.098889 -15.709797 0.832461 0.333062 -7.406448 2.483092 0.196139 26.285397 -3.108507 -1.903069 -12.923469 -6.319496 -1.934564 
1.172777 44.262474 -0.345756 -1.947000 -3.503840 -1.814780 -20.304899 2.592180 -0.958613 14.795300 3.264710 -0.270082 12.772100 14.233100 -8.124990 13.094500 10.776000 -3.649320 2.000000 -2.000000 0.000000 -91.579697 10.667500 164.897995 35.469101 -0.326195 0.079390 0.049476 -0.039118 -151.033005 -2.000000 2.000000 0.000000 85.493103 -2.668050 164.281006 -28.681999 0.334789 0.065619 -0.056026 0.022785 -145.085999 -7.756485 1.515185 2.718459 29.073833 3.106916 2.074325 -15.697243 0.883201 0.349654 -7.338245 2.336099 0.134490 26.256086 -3.110510 -1.913532 -12.947620 -6.244313 -1.918634 
